<mxfile host="app.diagrams.net" modified="2023-01-16T01:48:50.165Z" agent="5.0 (Windows NT 10.0; Win64; x64) AppleWebKit/537.36 (KHTML, like Gecko) Chrome/109.0.0.0 Safari/537.36" etag="Kb-M2lwupHbp7K5aAgJN" version="20.8.5" type="github">
  <diagram name="Page-1" id="e7e014a7-5840-1c2e-5031-d8a46d1fe8dd">
    <mxGraphModel dx="2782" dy="703" grid="1" gridSize="10" guides="1" tooltips="1" connect="1" arrows="1" fold="1" page="1" pageScale="1" pageWidth="1169" pageHeight="826" background="none" math="0" shadow="0">
      <root>
        <mxCell id="0" />
        <mxCell id="1" parent="0" />
        <mxCell id="SPDB-RYZYYu29DdNVvm_-6" value="User / Responden" style="swimlane;whiteSpace=wrap;startSize=23;" parent="1" vertex="1">
          <mxGeometry x="-980" y="40" width="435" height="690" as="geometry" />
        </mxCell>
        <mxCell id="SPDB-RYZYYu29DdNVvm_-7" value="" style="ellipse;shape=startState;fillColor=#000000;strokeColor=#ff0000;" parent="SPDB-RYZYYu29DdNVvm_-6" vertex="1">
          <mxGeometry x="160" y="50" width="30" height="30" as="geometry" />
        </mxCell>
        <mxCell id="SPDB-RYZYYu29DdNVvm_-20" value="Sistem" style="swimlane;whiteSpace=wrap" parent="1" vertex="1">
          <mxGeometry x="-545" y="40" width="395" height="690" as="geometry" />
        </mxCell>
        <mxCell id="RG1qngbpqG3eQFfVuzPi-7" value="menampilakn halaman Login" style="rounded=1;whiteSpace=wrap;html=1;arcSize=40;fontColor=#000000;fillColor=#ffffc0;strokeColor=#ff0000;" parent="SPDB-RYZYYu29DdNVvm_-20" vertex="1">
          <mxGeometry x="140" y="100" width="120" height="40" as="geometry" />
        </mxCell>
        <mxCell id="RG1qngbpqG3eQFfVuzPi-9" style="edgeStyle=orthogonalEdgeStyle;rounded=0;orthogonalLoop=1;jettySize=auto;html=1;entryX=0;entryY=0.5;entryDx=0;entryDy=0;strokeColor=#FF0A0A;endArrow=open;endFill=0;" parent="1" source="RG1qngbpqG3eQFfVuzPi-2" target="RG1qngbpqG3eQFfVuzPi-7" edge="1">
          <mxGeometry relative="1" as="geometry" />
        </mxCell>
        <mxCell id="RG1qngbpqG3eQFfVuzPi-2" value="membuka website" style="rounded=1;whiteSpace=wrap;html=1;arcSize=40;fontColor=#000000;fillColor=#ffffc0;strokeColor=#ff0000;" parent="1" vertex="1">
          <mxGeometry x="-865" y="140" width="120" height="40" as="geometry" />
        </mxCell>
        <mxCell id="SPDB-RYZYYu29DdNVvm_-8" value="" style="edgeStyle=elbowEdgeStyle;elbow=horizontal;verticalAlign=bottom;endArrow=open;endSize=8;strokeColor=#FF0000;endFill=1;rounded=0;" parent="1" source="SPDB-RYZYYu29DdNVvm_-7" target="RG1qngbpqG3eQFfVuzPi-2" edge="1">
          <mxGeometry x="-880" y="70" as="geometry">
            <mxPoint x="-805" y="160" as="targetPoint" />
          </mxGeometry>
        </mxCell>
      </root>
    </mxGraphModel>
  </diagram>
</mxfile>
